<svg width="211" height="57" viewBox="0 0 211 57" fill="none" xmlns="http://www.w3.org/2000/svg">
<path d="M25.9348 8.08291C23.1922 2.48968 17.3145 -0.43422 11.2099 0.767031C5.65729 1.85991 1.26386 6.56882 0.647469 12.2121C0.127167 16.9722 1.73305 20.944 5.34654 24.0907C5.58165 24.2952 5.62458 24.4025 5.44059 24.6878C3.26738 28.0615 3.01081 31.5978 4.7874 35.1893C6.66417 38.9842 10.6068 41.127 14.8265 40.7835C17.3125 40.5811 19.4509 39.5976 21.2296 37.8474C21.756 37.329 21.7713 36.5561 21.2848 36.0572C20.7849 35.545 20.0591 35.5522 19.501 36.0787C17.5486 37.922 15.2435 38.6622 12.596 38.2205C6.98718 37.2861 4.24767 30.5959 7.55655 25.9698C7.70988 25.7561 7.81824 25.7255 8.04721 25.84C9.30657 26.4677 10.6365 26.8797 12.0328 27.0657C15.2047 27.49 18.1619 26.8705 20.8994 25.2184C21.8051 24.6714 21.8848 23.7738 21.1212 23.0387C17.4586 19.5168 11.7282 19.1845 7.71704 22.2843C7.40424 22.5265 7.24989 22.4652 6.99638 22.2495C4.89064 20.4563 3.59449 18.2102 3.1396 15.4744C3.08032 15.1197 3.16107 15.0727 3.48102 15.0737C7.22331 15.0829 10.9656 15.0798 14.7079 15.0798C18.4246 15.0798 22.1414 15.0798 25.8581 15.0798C26.7587 15.0798 27.2555 14.5962 27.2391 13.7017C27.2043 11.7388 26.8057 9.85769 25.9348 8.08291ZM18.1231 23.8638C15.3161 24.9914 12.5694 25.0047 9.7962 23.919C11.7854 22.4049 15.4439 22.09 18.1231 23.8638ZM24.3381 12.6068C20.8421 12.5976 17.3452 12.6006 13.8492 12.6006C10.3911 12.5996 6.93403 12.5965 3.47591 12.6057C3.16107 12.6068 3.07112 12.573 3.14063 12.2111C3.99519 7.72816 6.57523 4.74496 10.9288 3.39752C15.8967 1.85991 21.2858 4.30944 23.6767 9.10116C24.1725 10.0949 24.4843 11.1469 24.6488 12.2469C24.6938 12.5536 24.6315 12.6078 24.3381 12.6068Z" fill="#090909"/>
<path d="M13.895 45.8595C10.9572 45.8595 8.57544 48.2415 8.57544 51.1797C8.57544 54.1179 10.9572 56.5 13.895 56.5C16.8328 56.5 19.2145 54.1179 19.2145 51.1797C19.2145 48.2405 16.8328 45.8595 13.895 45.8595ZM17.1415 48.4276C17.6751 49.0574 18.0145 49.8282 18.1177 50.6471H16.0079C15.9414 49.4182 15.6379 48.2129 15.1124 47.0996C15.9036 47.3368 16.6089 47.7978 17.1415 48.4276ZM13.895 47.0546C14.5083 48.1587 14.8661 49.3865 14.9428 50.6471H12.8483H12.8472C12.9239 49.3865 13.2817 48.1597 13.895 47.0546ZM10.6485 48.4276C11.1821 47.7978 11.8864 47.3368 12.6775 47.0996C12.1532 48.2129 11.8485 49.4172 11.7821 50.6471H9.67227C9.77551 49.8292 10.1149 49.0574 10.6485 48.4276ZM10.6485 53.9309C10.1149 53.3011 9.77551 52.5302 9.67227 51.7114H11.7821C11.8485 52.9402 12.1521 54.1455 12.6775 55.2589C11.8864 55.0217 11.181 54.5606 10.6485 53.9309ZM13.895 55.3039C13.298 54.2284 12.927 53.0087 12.8472 51.7114H14.9438C14.8661 52.9719 14.5083 54.1997 13.895 55.3039ZM17.1415 53.9309C16.6079 54.5606 15.9036 55.0217 15.1124 55.2589C15.6368 54.1455 15.9414 52.9412 16.0079 51.7114H18.1177C18.0145 52.5302 17.6751 53.3011 17.1415 53.9309Z" fill="#07A0B8"/>
<path d="M207.448 16.1202C199.391 15.4705 191.357 15.9318 183.335 16.7378C180.771 16.9957 178.212 17.2908 175.43 17.5934C175.705 17.2338 175.832 17.0354 175.991 16.8643C177.826 14.9075 179.77 13.0624 181.741 11.247C182.148 10.8725 182.718 10.3021 182.344 9.76147C181.917 9.14643 181.314 9.75155 180.823 9.95739C180.486 10.0987 180.189 10.3393 179.886 10.5551C177.689 12.1076 175.753 13.9676 173.828 15.8276C172.541 17.0726 171.225 18.072 169.35 18.0745C169.114 18.0745 168.871 18.1836 168.643 18.2754C168.182 18.4589 168.056 18.821 168.155 19.2823C168.259 19.7584 168.606 19.7907 169.01 19.7733C169.342 19.7609 169.707 19.4757 170.111 19.9345C169.6 20.5099 169.129 21.1299 168.569 21.6557C167.158 22.98 165.63 24.2001 164.842 26.0478C164.715 26.3429 164.438 26.4024 164.195 26.5537C162.429 27.6598 160.492 27.8656 158.479 27.7664C156.426 27.6647 155.779 26.5735 156.637 24.7234C157.061 23.8058 157.849 23.2974 158.593 22.7097C159.134 22.2806 159.344 21.673 158.945 21.0679C158.623 20.5768 158.038 20.376 157.529 20.7331C155.761 21.9805 153.596 22.5981 152.143 24.3688C150.638 26.204 148.516 27.1687 146.326 27.9549C145.989 28.0764 145.55 28.2178 145.116 27.8408C145.381 27.4341 145.602 27.0447 145.872 26.6951C146.408 26.0031 146.795 25.2864 146.229 24.4506C145.674 23.6273 144.831 23.4735 143.926 23.657C142.626 23.9199 141.411 24.4283 140.206 24.9714C138.555 25.713 136.883 26.4148 135.217 27.1266C134.996 27.2208 134.738 27.3597 134.528 27.1563C134.354 26.9877 134.486 26.7719 134.58 26.5959C135.096 25.6138 135.301 24.5647 134.481 23.724C133.657 22.8783 132.571 23.2255 131.564 23.4859C129.633 23.9869 127.86 24.8425 126.149 25.8494C125.197 26.4098 124.2 26.8662 123.052 26.9183C123.667 26.199 124.334 25.5989 125.04 25.0458C125.764 24.4779 126.392 23.8257 126.883 23.0569C127.245 22.4865 127.798 21.9136 127.334 21.1472C126.898 20.4231 126.159 20.2842 125.397 20.2867C125.035 20.2867 124.663 20.376 124.314 20.4801C120.847 21.5193 118.214 23.843 115.603 26.1842C114.333 27.3225 112.865 27.9028 111.159 28.0913C111.107 27.3126 111.638 26.9579 111.938 26.4966C112.312 25.9238 112.639 25.3732 112.285 24.6714C111.905 23.9224 111.253 23.5901 110.465 23.6173C109.899 23.6372 109.329 23.786 108.779 23.9447C106.591 24.5796 104.633 25.7626 102.525 26.5859C101.83 26.8563 101.168 27.3597 100.318 27.1588C100.345 26.9803 100.333 26.8414 100.39 26.7422C100.968 25.7378 101.208 24.654 100.4 23.7389C99.6484 22.8882 98.5722 23.1883 97.6076 23.4413C95.723 23.9348 93.9674 24.7309 92.2886 25.7204C91.2447 26.3379 90.166 26.9183 88.5542 27.0745C89.3973 26.3528 89.9701 25.832 90.5727 25.3534C91.453 24.6565 92.2688 23.9075 92.8738 22.9527C93.826 21.4523 93.3053 20.4032 91.5398 20.2817C91.0835 20.2495 90.6471 20.3338 90.2007 20.4652C87.1879 21.3605 84.8421 23.3148 82.5013 25.279C81.3954 26.2065 80.0737 26.3156 78.8909 25.522C78.2734 25.1078 77.8469 24.6441 78.1569 23.7761C78.3776 23.1561 78.3379 22.4716 78.0428 21.8417C77.6858 21.0828 77.0708 20.7504 76.2525 20.7777C75.5111 20.8025 74.6928 20.7504 74.2935 21.5416C73.9241 22.2757 74.2787 22.8485 74.8391 23.3942C75.3722 23.915 75.4491 24.6689 74.9135 25.1847C73.6835 26.3726 72.1189 27.0398 70.5219 27.5779C69.9342 27.7763 69.3639 27.4639 69.111 26.8488C68.8506 26.2115 69.3094 25.8593 69.7433 25.5245C70.5492 24.897 71.4965 24.6465 72.4809 24.4655C73.3885 24.2993 73.7505 23.7066 73.4728 22.8361C73.2124 22.0252 72.6495 21.606 71.7543 21.8937C70.9261 22.1591 70.1376 22.5038 69.4259 23.0147C68.1142 23.9571 67.2636 25.4674 66.0982 26.3677C64.4021 27.6796 62.0786 28.255 59.7799 28.0442C58.7657 27.95 58.4186 27.1886 58.8277 26.2338C59.2245 25.3062 59.9039 24.5796 60.6007 23.8753C60.9131 23.5603 61.3396 23.4437 61.7488 23.5876C62.8622 23.9819 63.7201 23.9224 64.1838 22.6154C64.3425 22.169 65.1063 21.9334 64.7071 21.2737C64.2806 20.5694 63.5639 20.5892 62.944 20.8199C62.1034 21.1349 61.3272 21.6209 60.5139 22.0152C58.736 22.8758 57.4317 24.1927 56.6158 25.9907C56.4249 26.4123 56.229 26.7719 55.7579 26.9753C53.5881 27.9127 51.3589 27.9524 49.09 27.4787C48.7255 27.4019 48.2965 27.2357 48.2915 26.8215C48.2866 26.3627 48.7875 26.3503 49.1197 26.2387C50.2182 25.8766 51.3019 25.4823 52.1698 24.6763C53.1393 23.7761 53.4542 22.3873 52.8988 21.5465C52.383 20.7628 50.791 20.3834 49.7223 20.9191C48.0733 21.7474 46.6723 22.9205 45.7895 24.5672C44.4753 27.0249 45.5911 29.2594 48.3386 29.6959C50.8803 30.1001 53.36 29.8472 55.6959 28.7064C56.1918 28.4633 56.5266 28.322 56.9407 28.8651C57.4812 29.5719 58.3169 29.7232 59.165 29.748C61.5727 29.8174 63.7945 29.1131 65.9469 28.1186C66.2841 27.9623 66.5743 27.5755 66.914 28.2128C67.7546 29.7926 69.1531 29.9588 70.7426 29.6091C72.4759 29.2272 73.9365 28.3021 75.3598 27.3175C76.0095 26.8686 76.6071 26.7819 77.3064 27.1762C79.7141 28.5253 81.8368 28.0516 83.8478 26.2561C85.2612 24.9938 86.8184 23.8951 88.522 23.0345C88.9559 22.8138 89.4345 22.6749 89.9032 22.5261C90.1387 22.4517 90.4512 22.3972 90.5876 22.6328C90.7487 22.9081 90.6099 23.2057 90.3669 23.4016C89.5015 24.1009 88.6485 24.8202 87.7508 25.4724C86.5184 26.3677 85.2339 27.191 84.004 28.0913C83.6519 28.3492 83.2973 28.7336 83.4833 29.2569C83.6767 29.8 84.1751 29.7256 84.6314 29.7579C87.0466 29.9166 89.1171 28.8179 91.2472 27.9524C93.0747 27.2109 94.8303 26.2759 96.767 25.8295C97.1637 25.7378 97.7638 25.517 97.9994 26.0031C98.2225 26.4619 97.6919 26.7943 97.4365 27.1514C97.367 27.2481 97.253 27.3151 97.1513 27.387C96.452 27.8755 95.6536 28.5501 96.0404 29.3611C96.4595 30.244 97.5307 29.8075 98.2771 29.624C101.111 28.9221 103.928 28.1434 106.626 26.9877C107.437 26.6405 108.233 26.1817 109.188 26.2486C109.21 26.7694 108.93 27.072 108.655 27.3721C108.24 27.821 107.668 28.2252 107.968 28.9469C108.268 29.6686 108.979 29.7132 109.634 29.7827C109.999 29.8224 110.371 29.8397 110.735 29.805C113.294 29.5545 115.441 28.4112 117.353 26.7446C119.223 25.1153 121.192 23.6223 123.486 22.6328C123.853 22.4741 124.438 22.2112 124.701 22.7221C124.919 23.1461 124.433 23.4363 124.13 23.7017C122.853 24.8177 121.455 25.7675 120.039 26.6951C119.283 27.1911 118.484 27.635 117.864 28.317C117.591 28.6171 117.487 28.9618 117.634 29.3412C117.775 29.7108 118.107 29.7604 118.457 29.748C119.278 29.7182 120.093 29.7827 120.917 29.5694C122.925 29.0536 124.78 28.1607 126.674 27.3647C128.115 26.762 129.521 26.0428 131.083 25.7998C131.421 25.7477 131.894 25.584 132.105 25.9758C132.313 26.3603 131.904 26.638 131.703 26.9282C131.589 27.0943 131.421 27.2283 131.262 27.3597C130.597 27.9152 129.643 28.5551 130.161 29.4429C130.602 30.1968 131.678 29.7976 132.46 29.6016C135.455 28.8527 138.423 28.0095 141.26 26.762C141.887 26.4867 142.537 26.1197 143.333 26.2685C143.174 26.948 142.795 27.3175 142.425 27.7069C141.652 28.5228 141.853 29.3214 142.941 29.6438C143.569 29.8298 144.221 29.8992 144.898 29.8149C148.136 29.4132 150.673 27.5829 153.304 25.7774C153.299 28.7808 154.655 30.1497 157.544 29.924C159.592 29.7628 161.65 29.5074 163.54 28.5774C164.021 28.3418 164.381 28.1682 164.591 28.9295C164.802 29.6984 165.442 30.0828 166.213 30.2985C168.946 31.0574 173.642 29.5818 175.383 27.3944C175.564 27.1662 175.807 26.9406 175.589 26.6355C175.39 26.3578 175.076 26.4074 174.798 26.5041C174.528 26.5983 174.255 26.7075 174.014 26.8612C172.574 27.7838 170.979 28.3145 169.347 28.7609C168.569 28.9742 167.753 29.1751 167.203 28.384C166.65 27.5903 167.111 26.8414 167.604 26.2362C169.342 24.091 171.061 21.921 173.114 20.056C173.754 19.4757 174.53 19.1682 175.358 19.126C182.242 18.7763 189.063 17.576 195.972 17.6058C200.22 17.6231 204.465 17.0354 208.715 17.6033C209.263 17.6777 209.928 17.7819 210.448 17.2338C209.561 16.4377 208.509 16.207 207.448 16.1202Z" fill="#090909"/>
<path d="M166.037 13.2384C166.704 13.04 167.512 13.0549 167.696 12.2191C167.795 11.7702 166.439 10.317 166.062 10.3566C165.194 10.4484 164.425 11.0709 164.455 11.7603C164.48 12.3803 165.191 13.0723 166.037 13.2384Z" fill="#090909"/>
<path d="M53.8645 51.8125V53.5H47.8176V51.8125H53.8645ZM48.4739 42.125V53.5H46.3254V42.125H48.4739ZM53.0754 46.8203V48.4688H47.8176V46.8203H53.0754ZM53.8411 42.125V43.8203H47.8176V42.125H53.8411ZM62.3329 49.7578H64.4814C64.4241 50.5182 64.2131 51.1927 63.8486 51.7812C63.484 52.3646 62.9762 52.8229 62.3251 53.1562C61.6741 53.4896 60.885 53.6562 59.9579 53.6562C59.2444 53.6562 58.6012 53.5312 58.0283 53.2812C57.4605 53.026 56.9736 52.6641 56.5673 52.1953C56.1663 51.7214 55.859 51.1536 55.6454 50.4922C55.4319 49.8255 55.3251 49.0781 55.3251 48.25V47.3828C55.3251 46.5547 55.4345 45.8073 55.6533 45.1406C55.872 44.474 56.1845 43.9062 56.5908 43.4375C57.0022 42.9635 57.4944 42.599 58.0673 42.3438C58.6454 42.0885 59.2913 41.9609 60.0048 41.9609C60.9319 41.9609 61.7158 42.1328 62.3564 42.4766C62.997 42.8151 63.4944 43.2812 63.8486 43.875C64.2027 44.4688 64.4163 45.151 64.4892 45.9219H62.3408C62.2991 45.4427 62.1949 45.0365 62.0283 44.7031C61.8668 44.3698 61.622 44.1172 61.2939 43.9453C60.971 43.7682 60.5413 43.6797 60.0048 43.6797C59.5881 43.6797 59.221 43.7578 58.9033 43.9141C58.5908 44.0703 58.3303 44.3047 58.122 44.6172C57.9137 44.9245 57.7574 45.3099 57.6533 45.7734C57.5491 46.2318 57.497 46.763 57.497 47.3672V48.25C57.497 48.8281 57.5439 49.3464 57.6376 49.8047C57.7314 50.263 57.8772 50.651 58.0751 50.9688C58.273 51.2865 58.5283 51.5286 58.8408 51.6953C59.1533 51.862 59.5256 51.9453 59.9579 51.9453C60.484 51.9453 60.9111 51.862 61.2392 51.6953C61.5725 51.5286 61.8251 51.2839 61.997 50.9609C62.1741 50.638 62.2861 50.237 62.3329 49.7578ZM75.6764 47.5234V48.1094C75.6764 48.9688 75.5618 49.7422 75.3326 50.4297C75.1035 51.112 74.7779 51.6927 74.3561 52.1719C73.9342 52.651 73.4316 53.0182 72.8483 53.2734C72.2649 53.5286 71.6165 53.6562 70.9029 53.6562C70.1998 53.6562 69.554 53.5286 68.9654 53.2734C68.3821 53.0182 67.8769 52.651 67.4498 52.1719C67.0227 51.6927 66.692 51.112 66.4576 50.4297C66.2233 49.7422 66.1061 48.9688 66.1061 48.1094V47.5234C66.1061 46.6589 66.2233 45.8854 66.4576 45.2031C66.692 44.5208 67.0201 43.9401 67.442 43.4609C67.8639 42.9766 68.3665 42.6068 68.9498 42.3516C69.5384 42.0964 70.1842 41.9688 70.8873 41.9688C71.6009 41.9688 72.2493 42.0964 72.8326 42.3516C73.416 42.6068 73.9186 42.9766 74.3404 43.4609C74.7675 43.9401 75.0956 44.5208 75.3248 45.2031C75.5592 45.8854 75.6764 46.6589 75.6764 47.5234ZM73.5045 48.1094V47.5078C73.5045 46.888 73.4472 46.3438 73.3326 45.875C73.218 45.401 73.0488 45.0026 72.8248 44.6797C72.6009 44.3568 72.3248 44.1146 71.9967 43.9531C71.6686 43.7865 71.2988 43.7031 70.8873 43.7031C70.4706 43.7031 70.1009 43.7865 69.7779 43.9531C69.4602 44.1146 69.1894 44.3568 68.9654 44.6797C68.7415 45.0026 68.5696 45.401 68.4498 45.875C68.3352 46.3438 68.2779 46.888 68.2779 47.5078V48.1094C68.2779 48.724 68.3352 49.2682 68.4498 49.7422C68.5696 50.2161 68.7415 50.6172 68.9654 50.9453C69.1946 51.2682 69.4706 51.513 69.7936 51.6797C70.1165 51.8464 70.4863 51.9297 70.9029 51.9297C71.3196 51.9297 71.6894 51.8464 72.0123 51.6797C72.3352 51.513 72.6061 51.2682 72.8248 50.9453C73.0488 50.6172 73.218 50.2161 73.3326 49.7422C73.4472 49.2682 73.5045 48.724 73.5045 48.1094ZM86.1211 51.2734L88.957 42.125H91.3398L87.3242 53.5H85.7383L86.1211 51.2734ZM83.5039 42.125L86.3242 51.2734L86.7304 53.5H85.1289L81.1289 42.125H83.5039ZM96.7614 43.8516L93.5192 53.5H91.2458L95.4958 42.125H96.9489L96.7614 43.8516ZM99.4723 53.5L96.2145 43.8516L96.0192 42.125H97.4801L101.754 53.5H99.4723ZM99.3239 49.2734V50.9688H93.2223V49.2734H99.3239ZM110.464 51.8125V53.5H104.745V51.8125H110.464ZM105.394 42.125V53.5H103.245V42.125H105.394ZM118.253 42.125H120.401V49.6797C120.401 50.5495 120.214 51.2812 119.839 51.875C119.464 52.4635 118.953 52.9089 118.308 53.2109C117.662 53.5078 116.927 53.6562 116.104 53.6562C115.271 53.6562 114.529 53.5078 113.878 53.2109C113.227 52.9089 112.716 52.4635 112.347 51.875C111.977 51.2812 111.792 50.5495 111.792 49.6797V42.125H113.94V49.6797C113.94 50.2109 114.029 50.6458 114.206 50.9844C114.383 51.3177 114.633 51.5651 114.956 51.7266C115.279 51.888 115.662 51.9688 116.104 51.9688C116.552 51.9688 116.935 51.888 117.253 51.7266C117.576 51.5651 117.823 51.3177 117.995 50.9844C118.167 50.6458 118.253 50.2109 118.253 49.6797V42.125ZM130.299 51.8125V53.5H124.253V51.8125H130.299ZM124.909 42.125V53.5H122.76V42.125H124.909ZM129.51 46.8203V48.4688H124.253V46.8203H129.51ZM130.276 42.125V43.8203H124.253V42.125H130.276ZM140.791 49.3516H137.861V47.6641H140.791C141.27 47.6641 141.658 47.5859 141.955 47.4297C142.257 47.2682 142.479 47.0495 142.619 46.7734C142.76 46.4922 142.83 46.1719 142.83 45.8125C142.83 45.4635 142.76 45.138 142.619 44.8359C142.479 44.5339 142.257 44.2891 141.955 44.1016C141.658 43.9141 141.27 43.8203 140.791 43.8203H138.564V53.5H136.416V42.125H140.791C141.676 42.125 142.432 42.2839 143.057 42.6016C143.687 42.9141 144.166 43.349 144.494 43.9062C144.828 44.4583 144.994 45.0885 144.994 45.7969C144.994 46.5312 144.828 47.1641 144.494 47.6953C144.166 48.2266 143.687 48.6354 143.057 48.9219C142.432 49.2083 141.676 49.3516 140.791 49.3516ZM150.291 43.8516L147.049 53.5H144.775L149.025 42.125H150.478L150.291 43.8516ZM153.002 53.5L149.744 43.8516L149.549 42.125H151.009L155.283 53.5H153.002ZM152.853 49.2734V50.9688H146.752V49.2734H152.853ZM163.29 49.7578H165.439C165.382 50.5182 165.171 51.1927 164.806 51.7812C164.441 52.3646 163.934 52.8229 163.283 53.1562C162.632 53.4896 161.843 53.6562 160.915 53.6562C160.202 53.6562 159.559 53.5312 158.986 53.2812C158.418 53.026 157.931 52.6641 157.525 52.1953C157.124 51.7214 156.816 51.1536 156.603 50.4922C156.389 49.8255 156.283 49.0781 156.283 48.25V47.3828C156.283 46.5547 156.392 45.8073 156.611 45.1406C156.829 44.474 157.142 43.9062 157.548 43.4375C157.96 42.9635 158.452 42.599 159.025 42.3438C159.603 42.0885 160.249 41.9609 160.962 41.9609C161.889 41.9609 162.673 42.1328 163.314 42.4766C163.954 42.8151 164.452 43.2812 164.806 43.875C165.16 44.4688 165.374 45.151 165.447 45.9219H163.298C163.257 45.4427 163.152 45.0365 162.986 44.7031C162.824 44.3698 162.579 44.1172 162.251 43.9453C161.928 43.7682 161.499 43.6797 160.962 43.6797C160.546 43.6797 160.178 43.7578 159.861 43.9141C159.548 44.0703 159.288 44.3047 159.079 44.6172C158.871 44.9245 158.715 45.3099 158.611 45.7734C158.507 46.2318 158.454 46.763 158.454 47.3672V48.25C158.454 48.8281 158.501 49.3464 158.595 49.8047C158.689 50.263 158.835 50.651 159.033 50.9688C159.231 51.2865 159.486 51.5286 159.798 51.6953C160.111 51.862 160.483 51.9453 160.915 51.9453C161.441 51.9453 161.869 51.862 162.197 51.6953C162.53 51.5286 162.783 51.2839 162.954 50.9609C163.132 50.638 163.244 50.237 163.29 49.7578ZM169.571 42.125V53.5H167.423V42.125H169.571ZM176.4 42.125L171.837 47.6719L169.228 50.4609L168.845 48.375L170.657 46.0234L173.767 42.125H176.4ZM174.009 53.5L170.47 48.1719L172.009 46.7812L176.564 53.5H174.009Z" fill="#07A0B8"/>
</svg>
